<?xml version="1.0" encoding="UTF-8" standalone="no"?>
<svg width="15px" height="33px" viewBox="0 0 15 33" version="1.1" xmlns="http://www.w3.org/2000/svg" xmlns:xlink="http://www.w3.org/1999/xlink" xmlns:sketch="http://www.bohemiancoding.com/sketch/ns">
    <title>hearts</title>
    <description>Created with Sketch (http://www.bohemiancoding.com/sketch)</description>
    <defs></defs>
    <g id="Page-1" stroke="none" stroke-width="1" fill="none" fill-rule="evenodd" sketch:type="MSPage">
        <g id="Oval-1-+-Oval-1" sketch:type="MSLayerGroup" transform="translate(0.000000, 1.000000)">
            <path d="M7.5,12 C7.5,12 15,8.75762566 15,4.75795378 C15,2.53321285 13.9048854,0.274762777 11.31016,0.137381392 C8.71543456,3.07446376e-16 7.5,2.34393863 7.5,2.34393823 C7.5,2.34393784 6.31578947,-4.14629404e-07 3.82743298,4.09928501e-16 C1.33907649,4.14666729e-07 0,2.45514836 0,4.75795378 C0,8.75762566 7.5,12 7.5,12 Z" id="Oval-1" fill="#E53131" sketch:type="MSShapeGroup"></path>
            <path d="M7.5,30 C7.5,30 15,26.7576257 15,22.7579538 C15,20.5332129 13.9048854,18.2747628 11.31016,18.1373814 C8.71543456,18 7.5,20.3439386 7.5,20.3439382 C7.5,20.3439378 6.31578947,17.9999996 3.82743298,18 C1.33907649,18.0000004 0,20.4551484 0,22.7579538 C0,26.7576257 7.5,30 7.5,30 Z" id="Oval-1" fill="#C8C8C8" sketch:type="MSShapeGroup"></path>
        </g>
    </g>
</svg>