<svg width="17" height="17" viewBox="0 0 17 17" xmlns="http://www.w3.org/2000/svg" xmlns:sketch="http://www.bohemiancoding.com/sketch/ns"><g sketch:type="MSPage" fill="#D8D8D8"><path sketch:type="MSShapeGroup" d="M8.5 13.75l-4.996 2.627.954-5.563-4.042-3.94 5.586-.812 2.498-5.062 2.498 5.062 5.586.812-4.042 3.94.954 5.563zM8.5 13.75l-4.996 2.627.954-5.563-4.042-3.94 5.586-.812 2.498-5.062 2.498 5.062 5.586.812-4.042 3.94.954 5.563zM8.5 13.75l-4.996 2.627.954-5.563-4.042-3.94 5.586-.812 2.498-5.062 2.498 5.062 5.586.812-4.042 3.94.954 5.563zM8.5 13.75l-4.996 2.627.954-5.563-4.042-3.94 5.586-.812 2.498-5.062 2.498 5.062 5.586.812-4.042 3.94.954 5.563zM8.5 13.75l-4.996 2.627.954-5.563-4.042-3.94 5.586-.812 2.498-5.062 2.498 5.062 5.586.812-4.042 3.94.954 5.563z"/></g></svg>