<?xml version="1.0" encoding="UTF-8" standalone="no"?>
<svg width="17px" height="17px" viewBox="0 0 17 17" version="1.1" xmlns="http://www.w3.org/2000/svg" xmlns:xlink="http://www.w3.org/1999/xlink" xmlns:sketch="http://www.bohemiancoding.com/sketch/ns">
    <g id="Page-1" stroke="none" stroke-width="1" fill="none" fill-rule="evenodd" sketch:type="MSPage">
        <polygon id="Star-1" fill="#D8D8D8" sketch:type="MSShapeGroup" points="8.49999981 13.75 3.50382575 16.3766447 4.45800986 10.8133224 0.416019551 6.87335573 6.00191348 6.06167719 8.5000001 1 10.9980882 6.06167844 16.5839818 6.87335978 12.5419898 10.8133234 13.4961741 16.3766449 "></polygon>
        <polygon id="Star-1" fill="#D8D8D8" sketch:type="MSShapeGroup" points="8.49999981 13.75 3.50382575 16.3766447 4.45800986 10.8133224 0.416019551 6.87335573 6.00191348 6.06167719 8.5000001 1 10.9980882 6.06167844 16.5839818 6.87335978 12.5419898 10.8133234 13.4961741 16.3766449 "></polygon>
        <polygon id="Star-1" fill="#D8D8D8" sketch:type="MSShapeGroup" points="8.49999981 13.75 3.50382575 16.3766447 4.45800986 10.8133224 0.416019551 6.87335573 6.00191348 6.06167719 8.5000001 1 10.9980882 6.06167844 16.5839818 6.87335978 12.5419898 10.8133234 13.4961741 16.3766449 "></polygon>
        <polygon id="Star-1" fill="#D8D8D8" sketch:type="MSShapeGroup" points="8.49999981 13.75 3.50382575 16.3766447 4.45800986 10.8133224 0.416019551 6.87335573 6.00191348 6.06167719 8.5000001 1 10.9980882 6.06167844 16.5839818 6.87335978 12.5419898 10.8133234 13.4961741 16.3766449 "></polygon>
        <polygon id="Star-1" fill="#D8D8D8" sketch:type="MSShapeGroup" points="8.49999981 13.75 3.50382575 16.3766447 4.45800986 10.8133224 0.416019551 6.87335573 6.00191348 6.06167719 8.5000001 1 10.9980882 6.06167844 16.5839818 6.87335978 12.5419898 10.8133234 13.4961741 16.3766449 "></polygon>
    </g>
</svg>