<svg width="16" height="34" viewBox="0 0 16 34" xmlns="http://www.w3.org/2000/svg" xmlns:sketch="http://www.bohemiancoding.com/sketch/ns"><title>faces</title><g sketch:type="MSPage" fill="none"><g id="face" sketch:type="MSLayerGroup"><path d="M8 33c3.866 0 7-3.134 7-7s-3.134-7-7-7-7 3.134-7 7 3.134 7 7 7z" id="Oval-3" stroke="#979797" fill="#D8D8D8" sketch:type="MSShapeGroup"/><path d="M5.733 25.533c.515 0 .933-.418.933-.933 0-.515-.418-.933-.933-.933-.515 0-.933.418-.933.933 0 .515.418.933.933.933zM10.267 25.533c.515 0 .933-.418.933-.933 0-.515-.418-.933-.933-.933-.515 0-.933.418-.933.933 0 .515.418.933.933.933z" id="Oval-4" fill="#9B9B9B" sketch:type="MSShapeGroup"/><path d="M5.667 29.267s.931-.933 2.199-.933c1.269 0 2.301.933 2.301.933" id="Line" stroke="#979797" stroke-linecap="square" sketch:type="MSShapeGroup"/></g><g sketch:type="MSLayerGroup"><path d="M8 15c3.866 0 7-3.134 7-7s-3.134-7-7-7-7 3.134-7 7 3.134 7 7 7z" stroke="#000" fill="#F8E81C" sketch:type="MSShapeGroup"/><path d="M5.733 7.533c.515 0 .933-.418.933-.933 0-.515-.418-.933-.933-.933-.515 0-.933.418-.933.933 0 .515.418.933.933.933zM10.267 7.533c.515 0 .933-.418.933-.933 0-.515-.418-.933-.933-.933-.515 0-.933.418-.933.933 0 .515.418.933.933.933z" fill="#000" sketch:type="MSShapeGroup"/><path d="M10.167 10.266s-.931.933-2.199.933c-1.269 0-2.301-.933-2.301-.933" stroke="#000" stroke-linecap="square" sketch:type="MSShapeGroup"/></g></g></svg>