<svg width="15" height="33" viewBox="0 0 15 33" xmlns="http://www.w3.org/2000/svg" xmlns:sketch="http://www.bohemiancoding.com/sketch/ns"><title>hearts</title><defs><filter x="-20%" y="-20%" width="140%" height="140%" filterUnits="objectBoundingBox" id="a"><feOffset in="SourceAlpha" result="shadowOffsetInner1"/><feGaussianBlur stdDeviation=".5" in="shadowOffsetInner1" result="shadowBlurInner1"/><feComposite in="shadowBlurInner1" in2="SourceAlpha" operator="arithmetic" k2="-1" k3="1" result="shadowInnerInner1"/><feColorMatrix values="0 0 0 0 0.713216146 0 0 0 0 0.100395521 0 0 0 0 0.100395521 0 0 0 0.7 0" in="shadowInnerInner1" result="shadowMatrixInner1"/><feMerge><feMergeNode in="SourceGraphic"/><feMergeNode in="shadowMatrixInner1"/></feMerge></filter></defs><g sketch:type="MSLayerGroup" fill="none"><path d="M7.5 13s7.5-3.242 7.5-7.242c0-2.225-1.095-4.483-3.69-4.621-2.595-.137-3.81 2.207-3.81 2.207s-1.184-2.344-3.673-2.344c-2.488 0-3.827 2.455-3.827 4.758 0 4 7.5 7.242 7.5 7.242z" id="Oval-1" fill="#E53131" filter="url(#a)" sketch:type="MSShapeGroup"/><path d="M7.5 31s7.5-3.242 7.5-7.242c0-2.225-1.095-4.483-3.69-4.621-2.595-.137-3.81 2.207-3.81 2.207s-1.184-2.344-3.673-2.344c-2.488 0-3.827 2.455-3.827 4.758 0 4 7.5 7.242 7.5 7.242z" fill="#C8C8C8" sketch:type="MSShapeGroup"/></g></svg>