<svg width="15" height="33" viewBox="0 0 15 33" xmlns="http://www.w3.org/2000/svg" xmlns:sketch="http://www.bohemiancoding.com/sketch/ns"><title>hearts</title><g sketch:type="MSLayerGroup" fill="none"><path d="M7.5 13s7.5-3.242 7.5-7.242c0-2.225-1.095-4.483-3.69-4.621-2.595-.137-3.81 2.207-3.81 2.207s-1.184-2.344-3.673-2.344c-2.488 0-3.827 2.455-3.827 4.758 0 4 7.5 7.242 7.5 7.242z" id="Oval-1" fill="#E53131" sketch:type="MSShapeGroup"/><path d="M7.5 31s7.5-3.242 7.5-7.242c0-2.225-1.095-4.483-3.69-4.621-2.595-.137-3.81 2.207-3.81 2.207s-1.184-2.344-3.673-2.344c-2.488 0-3.827 2.455-3.827 4.758 0 4 7.5 7.242 7.5 7.242z" fill="#C8C8C8" sketch:type="MSShapeGroup"/></g></svg>